<svg width="30" height="30" viewBox="0 0 30 30" fill="none" xmlns="http://www.w3.org/2000/svg">
<path d="M24.9483 7.39781C26.0091 6.73453 26.7188 5.55937 26.7188 4.21875C26.7188 2.15109 25.0364 0.46875 22.9688 0.46875C20.9011 0.46875 19.2188 2.15109 19.2188 4.21875C19.2188 5.55703 19.9256 6.73031 20.9836 7.39406C19.7827 7.84828 18.7575 8.70844 18.1008 9.84234C17.753 9.61125 17.3761 9.42234 16.9795 9.27234C18.0403 8.60953 18.75 7.43437 18.75 6.09375C18.75 4.02609 17.0677 2.34375 15 2.34375C12.9323 2.34375 11.25 4.02609 11.25 6.09375C11.25 7.43437 11.9597 8.60953 13.0205 9.27281C12.6239 9.42234 12.247 9.61172 11.8992 9.84281C11.2425 8.70891 10.2178 7.84875 9.01688 7.39453C10.0744 6.73078 10.7812 5.55703 10.7812 4.21875C10.7812 2.15109 9.09891 0.46875 7.03125 0.46875C4.96359 0.46875 3.28125 2.15109 3.28125 4.21875C3.28125 5.55937 3.99094 6.73453 5.05172 7.39781C2.925 8.20125 1.40625 10.252 1.40625 12.6562V16.4062C1.40625 17.4403 2.24719 18.2812 3.28125 18.2812H3.75V25.7812C3.75 26.8153 4.59094 27.6562 5.625 27.6562C6.18797 27.6562 6.68719 27.4022 7.03125 27.0084C7.37531 27.4022 7.87453 27.6562 8.4375 27.6562C9.47156 27.6562 10.3125 26.8153 10.3125 25.7812V19.8956C10.5895 20.0569 10.9069 20.1562 11.25 20.1562H11.7188V27.6562C11.7188 28.6903 12.5597 29.5312 13.5938 29.5312C14.1567 29.5312 14.6559 29.2772 15 28.8834C15.3441 29.2772 15.8433 29.5312 16.4062 29.5312C17.4403 29.5312 18.2812 28.6903 18.2812 27.6562V20.1562H18.75C19.0931 20.1562 19.4105 20.0569 19.6875 19.8956V25.7812C19.6875 26.8153 20.5284 27.6562 21.5625 27.6562C22.1255 27.6562 22.6247 27.4022 22.9688 27.0084C23.3128 27.4022 23.812 27.6562 24.375 27.6562C25.4091 27.6562 26.25 26.8153 26.25 25.7812V18.2812H26.7188C27.7528 18.2812 28.5938 17.4403 28.5938 16.4062V12.6562C28.5938 10.252 27.075 8.20125 24.9483 7.39781ZM21.9581 8.09156C22.2872 8.01844 22.6233 7.96875 22.9688 7.96875C23.318 7.96875 23.6573 8.01 23.9855 8.08312L22.9688 9.50625L21.9581 8.09156ZM22.3561 10.2619L21.7434 10.8745L20.8416 8.49141C20.9025 8.46047 20.9602 8.42344 21.0225 8.39484L22.3561 10.2619ZM23.5809 10.2619L24.9131 8.39672C24.9755 8.42531 25.0369 8.45484 25.0978 8.48578L24.1931 10.8745L23.5809 10.2619ZM20.1562 4.21875C20.1562 2.66766 21.4177 1.40625 22.9688 1.40625C24.5198 1.40625 25.7812 2.66766 25.7812 4.21875C25.7812 5.76984 24.5198 7.03125 22.9688 7.03125C21.4177 7.03125 20.1562 5.76984 20.1562 4.21875ZM15.4584 13.4677L15 14.1548L14.5416 13.4677L14.8078 9.85313C14.872 9.85078 14.9353 9.84375 15 9.84375C15.0647 9.84375 15.128 9.85078 15.1922 9.85359L15.4584 13.4677ZM12.1875 6.09375C12.1875 4.54266 13.4489 3.28125 15 3.28125C16.5511 3.28125 17.8125 4.54266 17.8125 6.09375C17.8125 7.64484 16.5511 8.90625 15 8.90625C13.4489 8.90625 12.1875 7.64484 12.1875 6.09375ZM7.03125 7.96875C7.32234 7.96875 7.60641 8.00484 7.88578 8.05687C7.73859 8.55422 7.40578 8.90625 7.03125 8.90625C6.65531 8.90625 6.32109 8.55141 6.17484 8.05078C6.45281 7.99922 6.73828 7.96875 7.03125 7.96875ZM4.21875 4.21875C4.21875 2.66766 5.48016 1.40625 7.03125 1.40625C8.58234 1.40625 9.84375 2.66766 9.84375 4.21875C9.84375 5.76984 8.58234 7.03125 7.03125 7.03125C5.48016 7.03125 4.21875 5.76984 4.21875 4.21875ZM9.375 25.7812C9.375 26.2983 8.95453 26.7188 8.4375 26.7188C7.92047 26.7188 7.5 26.2983 7.5 25.7812V15.9375H6.5625V25.7812C6.5625 26.2983 6.14203 26.7188 5.625 26.7188C5.10797 26.7188 4.6875 26.2983 4.6875 25.7812V10.7812H3.75V17.3438H3.28125C2.76422 17.3438 2.34375 16.9233 2.34375 16.4062V12.6562C2.34375 10.6917 3.56016 9.00844 5.27813 8.31234C5.54203 9.21375 6.225 9.84375 7.03125 9.84375C7.83516 9.84375 8.51578 9.2175 8.78203 8.32031C9.78281 8.72531 10.6242 9.46734 11.1497 10.4419C10.0598 11.468 9.375 12.9197 9.375 14.5312V15.9628V18.2812V25.7812ZM18.75 19.2188H18.2812V12.6562H17.3438V27.6562C17.3438 28.1733 16.9233 28.5938 16.4062 28.5938C15.8892 28.5938 15.4688 28.1733 15.4688 27.6562V17.8125H14.5312V27.6562C14.5312 28.1733 14.1108 28.5938 13.5938 28.5938C13.0767 28.5938 12.6562 28.1733 12.6562 27.6562V12.6562H11.7188V19.2188H11.25C10.733 19.2188 10.3125 18.7983 10.3125 18.2812V15.9628V14.5312C10.3125 12.3413 11.8247 10.5023 13.8581 9.99047L13.5834 13.7198L15 15.8452L16.4166 13.7198L16.1419 9.99047C18.1753 10.5023 19.6875 12.3413 19.6875 14.5312V15.9375V18.2812C19.6875 18.7983 19.267 19.2188 18.75 19.2188ZM27.6562 16.4062C27.6562 16.9233 27.2358 17.3438 26.7188 17.3438H26.25V11.25H25.3125V25.7812C25.3125 26.2983 24.892 26.7188 24.375 26.7188C23.858 26.7188 23.4375 26.2983 23.4375 25.7812V15.9375H22.5V25.7812C22.5 26.2983 22.0795 26.7188 21.5625 26.7188C21.0455 26.7188 20.625 26.2983 20.625 25.7812V18.2812V15.9375V14.5312C20.625 12.9197 19.9402 11.468 18.8503 10.4419C19.1517 9.88266 19.5544 9.39937 20.0362 9.01266L21.3811 12.5634L22.9688 10.9758L24.5564 12.5634L25.9031 9.00656C26.9705 9.86672 27.6562 11.182 27.6562 12.6562V16.4062Z" fill="black"/>
</svg>
