<svg width="107" height="19" viewBox="0 0 107 19" fill="none" xmlns="http://www.w3.org/2000/svg">
<path d="M0.256 1.2H7.6C9.392 1.2 10.984 1.552 12.376 2.256C13.768 2.944 14.848 3.928 15.616 5.208C16.384 6.472 16.768 7.936 16.768 9.6C16.768 11.264 16.384 12.736 15.616 14.016C14.848 15.28 13.768 16.264 12.376 16.968C10.984 17.656 9.392 18 7.6 18H0.256V1.2ZM7.456 15.36C8.688 15.36 9.768 15.128 10.696 14.664C11.64 14.184 12.36 13.512 12.856 12.648C13.368 11.768 13.624 10.752 13.624 9.6C13.624 8.448 13.368 7.44 12.856 6.576C12.36 5.696 11.64 5.024 10.696 4.56C9.768 4.08 8.688 3.84 7.456 3.84H3.376V15.36H7.456ZM31.8441 11.664C31.8441 11.872 31.8281 12.168 31.7961 12.552H21.7401C21.9161 13.496 22.3721 14.248 23.1081 14.808C23.8601 15.352 24.7881 15.624 25.8921 15.624C27.3001 15.624 28.4601 15.16 29.3721 14.232L30.9801 16.08C30.4041 16.768 29.6761 17.288 28.7961 17.64C27.9161 17.992 26.9241 18.168 25.8201 18.168C24.4121 18.168 23.1721 17.888 22.1001 17.328C21.0281 16.768 20.1961 15.992 19.6041 15C19.0281 13.992 18.7401 12.856 18.7401 11.592C18.7401 10.344 19.0201 9.224 19.5801 8.232C20.1561 7.224 20.9481 6.44 21.9561 5.88C22.9641 5.32 24.1001 5.04 25.3641 5.04C26.6121 5.04 27.7241 5.32 28.7001 5.88C29.6921 6.424 30.4601 7.2 31.0041 8.208C31.5641 9.2 31.8441 10.352 31.8441 11.664ZM25.3641 7.44C24.4041 7.44 23.5881 7.728 22.9161 8.304C22.2601 8.864 21.8601 9.616 21.7161 10.56H28.9881C28.8601 9.632 28.4681 8.88 27.8121 8.304C27.1561 7.728 26.3401 7.44 25.3641 7.44ZM46.4914 5.184L40.9954 18H37.8994L32.4034 5.184H35.5234L39.5074 14.688L43.6114 5.184H46.4914ZM56.422 17.304C56.07 17.592 55.638 17.808 55.126 17.952C54.63 18.096 54.102 18.168 53.542 18.168C52.134 18.168 51.046 17.8 50.278 17.064C49.51 16.328 49.126 15.256 49.126 13.848V7.68H47.014V5.28H49.126V2.352H52.126V5.28H55.558V7.68H52.126V13.776C52.126 14.4 52.278 14.88 52.582 15.216C52.886 15.536 53.326 15.696 53.902 15.696C54.574 15.696 55.134 15.52 55.582 15.168L56.422 17.304ZM70.516 11.664C70.516 11.872 70.5 12.168 70.468 12.552H60.412C60.588 13.496 61.044 14.248 61.78 14.808C62.532 15.352 63.46 15.624 64.564 15.624C65.972 15.624 67.132 15.16 68.044 14.232L69.652 16.08C69.076 16.768 68.348 17.288 67.468 17.64C66.588 17.992 65.596 18.168 64.492 18.168C63.084 18.168 61.844 17.888 60.772 17.328C59.7 16.768 58.868 15.992 58.276 15C57.7 13.992 57.412 12.856 57.412 11.592C57.412 10.344 57.692 9.224 58.252 8.232C58.828 7.224 59.62 6.44 60.628 5.88C61.636 5.32 62.772 5.04 64.036 5.04C65.284 5.04 66.396 5.32 67.372 5.88C68.364 6.424 69.132 7.2 69.676 8.208C70.236 9.2 70.516 10.352 70.516 11.664ZM64.036 7.44C63.076 7.44 62.26 7.728 61.588 8.304C60.932 8.864 60.532 9.616 60.388 10.56H67.66C67.532 9.632 67.14 8.88 66.484 8.304C65.828 7.728 65.012 7.44 64.036 7.44ZM79.2777 18.168C77.9497 18.168 76.7577 17.888 75.7017 17.328C74.6457 16.768 73.8217 15.992 73.2297 15C72.6377 13.992 72.3417 12.856 72.3417 11.592C72.3417 10.328 72.6377 9.2 73.2297 8.208C73.8217 7.216 74.6377 6.44 75.6777 5.88C76.7337 5.32 77.9337 5.04 79.2777 5.04C80.5417 5.04 81.6457 5.296 82.5897 5.808C83.5497 6.32 84.2697 7.056 84.7497 8.016L82.4457 9.36C82.0777 8.768 81.6137 8.328 81.0537 8.04C80.5097 7.736 79.9097 7.584 79.2537 7.584C78.1337 7.584 77.2057 7.952 76.4697 8.688C75.7337 9.408 75.3657 10.376 75.3657 11.592C75.3657 12.808 75.7257 13.784 76.4457 14.52C77.1817 15.24 78.1177 15.6 79.2537 15.6C79.9097 15.6 80.5097 15.456 81.0537 15.168C81.6137 14.864 82.0777 14.416 82.4457 13.824L84.7497 15.168C84.2537 16.128 83.5257 16.872 82.5657 17.4C81.6217 17.912 80.5257 18.168 79.2777 18.168ZM94.4978 5.04C96.1138 5.04 97.4098 5.512 98.3858 6.456C99.3618 7.4 99.8498 8.8 99.8498 10.656V18H96.8498V11.04C96.8498 9.92 96.5858 9.08 96.0578 8.52C95.5298 7.944 94.7778 7.656 93.8018 7.656C92.6978 7.656 91.8258 7.992 91.1858 8.664C90.5458 9.32 90.2258 10.272 90.2258 11.52V18H87.2258V0.191999H90.2258V6.672C90.7218 6.144 91.3298 5.744 92.0498 5.472C92.7858 5.184 93.6018 5.04 94.4978 5.04Z" fill="black"/>
<path d="M104.616 18.168C104.072 18.168 103.608 17.984 103.224 17.616C102.84 17.232 102.648 16.752 102.648 16.176C102.648 15.584 102.832 15.104 103.2 14.736C103.584 14.368 104.056 14.184 104.616 14.184C105.176 14.184 105.64 14.368 106.008 14.736C106.392 15.104 106.584 15.584 106.584 16.176C106.584 16.752 106.392 17.232 106.008 17.616C105.624 17.984 105.16 18.168 104.616 18.168Z" fill="#024FD1"/>
</svg>
