<svg width="30" height="30" viewBox="0 0 30 30" fill="none" xmlns="http://www.w3.org/2000/svg">
<path d="M24.6425 15C24.0508 15 23.5711 15.4797 23.5711 16.0715V26.7856C23.5711 27.3773 23.0914 27.857 22.4996 27.857H3.21424C2.6225 27.857 2.14281 27.3773 2.14281 26.7856V5.35731C2.14281 4.76556 2.6225 4.28587 3.21424 4.28587H16.0712C16.663 4.28587 17.1426 3.80619 17.1426 3.21444C17.1426 2.62269 16.663 2.14307 16.0712 2.14307H3.21424C1.43906 2.14307 0 3.58213 0 5.35731V26.7856C0 28.5608 1.43906 29.9998 3.21424 29.9998H22.4997C24.2749 29.9998 25.7139 28.5608 25.7139 26.7856V16.0714C25.7139 15.4797 25.2343 15 24.6425 15Z" fill="#02D148"/>
<path d="M28.7992 1.20171C28.0299 0.432301 26.9865 0.000135535 25.8985 0.000261091C24.8098 -0.00287782 23.7653 0.43004 22.9982 1.2024L8.88542 15.3139C8.76834 15.4319 8.68001 15.5753 8.62722 15.7329L6.4844 22.1613C6.29739 22.7228 6.60092 23.3295 7.16235 23.5164C7.27127 23.5527 7.38534 23.5712 7.50009 23.5713C7.6151 23.5711 7.72942 23.5527 7.83866 23.5167L14.2672 21.3739C14.425 21.3212 14.5685 21.2324 14.6861 21.1146L28.7987 7.00198C30.4005 5.40038 30.4007 2.8035 28.7992 1.20171ZM27.2838 5.48802L13.3554 19.4164L9.19398 20.806L10.5793 16.65L24.5131 2.72163C25.2791 1.95712 26.5199 1.95838 27.2844 2.7244C27.6496 3.09033 27.8554 3.58571 27.857 4.10269C27.8583 4.62243 27.6519 5.12114 27.2838 5.48802Z" fill="#02D148"/>
</svg>
