<svg width="30" height="30" viewBox="0 0 30 30" fill="none" xmlns="http://www.w3.org/2000/svg">
<g clip-path="url(#clip0)">
<path d="M29.4961 13.4112L26.9618 11.102V3.44476C26.9618 2.95755 26.5668 2.56251 26.0795 2.56251H19.9791C19.4918 2.56251 19.0968 2.95749 19.0968 3.44476V3.93542L16.0361 1.14654C15.4453 0.608118 14.5544 0.608176 13.9638 1.14648L0.50378 13.4113C0.030577 13.8425 -0.12581 14.507 0.105401 15.104C0.336671 15.701 0.899757 16.0867 1.54001 16.0867H3.68976V28.3751C3.68976 28.8623 4.08474 29.2573 4.572 29.2573H11.9497C12.4369 29.2573 12.832 28.8623 12.832 28.3751V20.914H17.168V28.3751C17.168 28.8623 17.5629 29.2574 18.0502 29.2574H25.4276C25.9148 29.2574 26.3099 28.8624 26.3098 28.3751V16.0868H28.46C29.1002 16.0868 29.6634 15.701 29.8946 15.104C30.1258 14.507 29.9695 13.8425 29.4961 13.4112ZM25.4276 14.3223C24.9404 14.3223 24.5454 14.7173 24.5454 15.2045V27.4929H18.9325V20.0317C18.9325 19.5445 18.5375 19.1495 18.0503 19.1495H11.9497C11.4625 19.1495 11.0675 19.5444 11.0675 20.0317V27.4929H5.45419V15.2045C5.45419 14.7173 5.05921 14.3223 4.57194 14.3223H2.12372L15 2.58947L19.385 6.58503C19.6433 6.82034 20.0161 6.88099 20.3356 6.73995C20.6552 6.59874 20.8614 6.28222 20.8614 5.93288V4.327H25.1974V11.4916C25.1974 11.7399 25.3019 11.9765 25.4855 12.1438L27.8763 14.3223H25.4276Z" fill="black"/>
</g>
<defs>
<clipPath id="clip0">
<rect width="30" height="30" fill="white"/>
</clipPath>
</defs>
</svg>
